<?xml version="1.0" encoding="utf-8"?>
<!-- Generator: Adobe Illustrator 25.3.1, SVG Export Plug-In . SVG Version: 6.00 Build 0)  -->
<svg version="1.1" id="Layer_1" xmlns="http://www.w3.org/2000/svg" xmlns:xlink="http://www.w3.org/1999/xlink" x="0px" y="0px"
     viewBox="0 0 934.9 571.76" style="enable-background:new 0 0 934.9 571.76;" xml:space="preserve">
<style type="text/css">
	.st0{fill:url(#SVGID_1_);}
	.st1{fill:url(#SVGID_2_);}
	.st2{fill:url(#SVGID_3_);}
	.st3{fill:url(#SVGID_4_);}
	.st4{fill:url(#SVGID_5_);}
</style>
    <g>
	<g>

			<linearGradient id="SVGID_1_" gradientUnits="userSpaceOnUse" x1="-71.4512" y1="329.8105" x2="863.5488" y2="329.8105" gradientTransform="matrix(1 0 0 -1 71.4512 617.3105)">
			<stop  offset="0" style="stop-color:#3C50FF"/>
                <stop  offset="1" style="stop-color:#3CA1FF"/>
		</linearGradient>
        <path class="st0" d="M1.5,11.52c19.9,0,39.8,0.2,59.71,0.7c19.9,0.4,39.8,1.1,59.71,2c19.9,1,39.8,2.2,59.61,4.2
			c9.9,1,19.8,2.2,29.7,3.8c4.9,0.8,9.9,1.8,14.8,3c2.5,0.6,4.9,1.3,7.3,2.1c2.4,0.8,4.9,1.7,7.2,3c1.2,0.7,2.4,1.4,3.5,2.4
			c1.1,1,2.3,2.3,2.7,4.3c0.1,0.5,0.2,1,0.2,1.5c0,0.73-0.05,1.46-0.15,2.19c-0.05,0.38-0.1,0.76-0.15,1.11c-0.3,1.4-0.8,2.8-1.5,4
			c-1.3,2.5-3,4.6-4.9,6.5c-1.9,1.9-3.9,3.6-5.9,5.1c-4.1,3.1-8.5,5.7-12.9,8.1c-4.4,2.4-8.9,4.6-13.4,6.8
			c-18.1,8.5-36.6,15.8-54.01,25c-4.3,2.3-8.6,4.7-12.7,7.3c-4.1,2.6-8,5.5-11.4,8.8c-3.4,3.2-6.3,7-7.7,11c-0.7,2-1,4.1-0.9,6.2
			c0,0.5,0.1,1.1,0.2,1.6c0.1,0.4,0.2,0.8,0.3,1.2c0.3,0.8,0.8,1.5,1.5,2.2c1.3,1.4,3.2,2.6,5.2,3.6c2,1,4.3,1.8,6.5,2.6
			c4.5,1.4,9.3,2.4,14.1,3.3c9.6,1.6,19.5,2.6,29.3,3.3c19.7,1.4,39.6,1.8,59.41,2c19.8,0.2,39.7,0.1,59.61-0.1
			c39.8-0.3,79.51-0.8,119.41-0.2c19.9,0.3,39.8,0.9,59.81,2.1c19.9,1.2,39.9,2.9,59.71,6.2c9.9,1.7,19.8,3.7,29.6,6.7
			c4.9,1.5,9.7,3.2,14.5,5.4c4.7,2.2,9.4,4.7,13.7,8.2c4.2,3.4,8.2,7.9,10.3,13.5c1,2.8,1.6,5.8,1.6,8.7c0,2.8-0.2,5.5-0.6,8.2
			c-0.9,5.4-2.9,10.7-5.7,15.4c-2.7,4.7-6.2,8.9-10,12.5c-7.6,7.4-16.4,13-25.3,17.8c-9,4.8-18.3,8.8-27.7,12.5
			c-18.8,7.3-37.9,13.1-56.91,18.9c-19,5.8-38.1,11.3-56.71,17.8c-9.3,3.2-18.5,6.7-27.5,10.5c-9,3.9-17.7,8.2-25.8,13.3
			c-8.1,5.1-15.5,11.1-21,18.3s-8.7,15.6-8.7,24.5c0,9.2,1.9,18.4,5.6,26.9s9,16.3,15.3,23.4c6.4,7,13.6,13.4,21.4,19.1
			c3.9,2.9,7.9,5.6,12,8.2c4.1,2.6,8.3,5,12.6,7.4c8.5,4.7,17.3,9,26.3,12.9c9,4,18.1,7.6,27.3,11c18.5,6.8,37.4,12.5,56.41,17.7
			c19.1,5.1,38.3,9.6,57.71,13.7c38.7,8,77.91,14.3,117.21,19.4c39.3,5.1,78.81,9.1,118.31,12.2c19.8,1.6,39.6,2.9,59.31,4
			c19.8,1.1,39.6,2,59.31,2.5h0.1c4,0.1,7.1,3.4,7,7.4s-3.4,7.1-7.4,7c-20.1-0.6-39.9-1.7-59.81-2.9c-19.9-1.2-39.8-2.7-59.61-4.4
			c-39.7-3.4-79.41-7.6-118.91-13c-39.5-5.4-78.91-11.9-118.01-20.3c-19.5-4.2-39-8.8-58.31-14.2c-19.3-5.3-38.4-11.3-57.31-18.3
			c-9.4-3.5-18.8-7.3-27.9-11.4c-9.2-4.1-18.3-8.6-27.1-13.5c-4.4-2.5-8.8-5.1-13.1-7.8c-4.3-2.7-8.5-5.6-12.6-8.7
			c-8.2-6.1-16-12.9-22.9-20.7c-6.9-7.8-12.9-16.6-17.1-26.4c-4.2-9.8-6.4-20.5-6.2-31.2c0-5.5,1.1-11.1,3-16.3
			c1.9-5.2,4.7-10.1,8-14.3c6.7-8.6,15.1-15.1,23.8-20.6c8.8-5.5,18-9.9,27.3-13.9c9.3-4,18.8-7.4,28.2-10.6
			c19-6.4,38.2-11.9,57.21-17.6c19-5.6,38-11.3,56.41-18.3c9.2-3.5,18.2-7.3,26.7-11.9c8.5-4.5,16.7-9.7,23.4-16.2
			c3.4-3.2,6.3-6.8,8.6-10.6c2.3-3.9,3.9-8.1,4.7-12.4c0.4-2.2,0.6-4.4,0.6-6.6c0-2-0.4-4-1.1-5.9c-1.4-3.8-4.1-7.1-7.6-9.9
			s-7.5-5.1-11.8-7.1c-4.3-2-8.8-3.6-13.4-5.1c-9.2-2.9-18.8-4.9-28.5-6.6c-19.4-3.3-39.1-5.1-58.81-6.4c-19.8-1.3-39.6-2-59.41-2.4
			c-39.7-0.8-79.41-0.5-119.21-0.5c-19.9,0-39.8,0-59.71-0.2c-19.9-0.3-39.8-0.8-59.81-2.3c-10-0.8-19.9-1.8-29.9-3.5
			c-5-0.9-9.9-2-14.9-3.5c-2.5-0.8-4.9-1.7-7.3-2.9s-4.8-2.7-6.9-4.9c-1-1.1-1.9-2.5-2.6-4c-0.3-0.8-0.5-1.6-0.6-2.4
			c-0.1-0.7-0.2-1.4-0.2-2.1c-0.2-2.9,0.3-5.8,1.2-8.4c1.9-5.3,5.4-9.6,9.2-13.2c3.8-3.6,8-6.6,12.3-9.3c4.3-2.7,8.7-5.2,13.2-7.5
			c17.9-9.2,36.5-16.4,54.41-24.7c4.5-2.1,8.9-4.2,13.2-6.6c4.3-2.3,8.5-4.8,12.4-7.6c1.9-1.4,3.8-2.9,5.4-4.6
			c1.6-1.6,3.1-3.4,4.1-5.3c0.5-1,0.9-1.9,1.1-2.9c0.1-0.5,0.2-1,0.2-1.5c0-0.2,0-0.5,0-0.7c0-0.27-0.02-0.54-0.13-0.78
			c-0.21-0.45-0.63-0.99-1.17-1.52c-0.7-0.7-1.6-1.3-2.6-1.8c-2-1.1-4.2-2-6.5-2.8c-2.3-0.8-4.6-1.4-7-2.1c-4.7-1.2-9.6-2.2-14.4-3
			c-9.7-1.7-19.5-2.9-29.4-4c-19.7-2.1-39.5-3.5-59.41-4.6c-20.2-1.8-40.1-2.6-59.91-3.2c-19.9-0.6-39.7-1-59.61-1.1
			c-0.9,0-1.5-0.6-1.5-1.4C0,12.22,0.7,11.52,1.5,11.52z"/>
	</g>
        <g>

			<linearGradient id="SVGID_2_" gradientUnits="userSpaceOnUse" x1="313.5488" y1="313.5034" x2="353.5488" y2="313.5034" gradientTransform="matrix(1 0 0 -1 71.4512 617.3105)">
			<stop  offset="0" style="stop-color:#FF3CB1"/>
                <stop  offset="1" style="stop-color:#D356FF"/>
		</linearGradient>
            <circle class="st1" cx="405" cy="303.81" r="20"/>
	</g>
        <g>

			<linearGradient id="SVGID_3_" gradientUnits="userSpaceOnUse" x1="198.7631" y1="464.7172" x2="230.7631" y2="464.7172" gradientTransform="matrix(1 0 0 -1 71.4512 617.3105)">
			<stop  offset="0" style="stop-color:#FF3CB1"/>
                <stop  offset="1" style="stop-color:#D356FF"/>
		</linearGradient>
            <circle class="st2" cx="286.21" cy="152.59" r="16"/>
	</g>
        <g>

			<linearGradient id="SVGID_4_" gradientUnits="userSpaceOnUse" x1="699.5488" y1="70.5517" x2="749.5488" y2="70.5517" gradientTransform="matrix(1 0 0 -1 71.4512 617.3105)">
			<stop  offset="0" style="stop-color:#FF3CB1"/>
                <stop  offset="1" style="stop-color:#D356FF"/>
		</linearGradient>
            <circle class="st3" cx="796" cy="546.76" r="25"/>
	</g>
        <g>

			<linearGradient id="SVGID_5_" gradientUnits="userSpaceOnUse" x1="-3.0226" y1="603.9891" x2="19.9774" y2="603.9891" gradientTransform="matrix(1 0 0 -1 71.4512 617.3105)">
			<stop  offset="0" style="stop-color:#FF3CB1"/>
                <stop  offset="1" style="stop-color:#D356FF"/>
		</linearGradient>
            <circle class="st4" cx="79.93" cy="13.32" r="11.5"/>
	</g>
</g>
</svg>
